<mxfile host="app.diagrams.net" modified="2022-10-15T16:33:23.811Z" agent="5.0 (Windows NT 10.0; Win64; x64) AppleWebKit/537.36 (KHTML, like Gecko) Chrome/106.0.0.0 Safari/537.36" etag="SJwitAVIPVE293k90kS4" version="20.3.3" type="github">
  <diagram id="Bx-xNaHaK0agXE2F0XZd" name="第 1 页">
    <mxGraphModel dx="865" dy="476" grid="1" gridSize="10" guides="1" tooltips="1" connect="1" arrows="1" fold="1" page="1" pageScale="1" pageWidth="827" pageHeight="583" math="1" shadow="0">
      <root>
        <mxCell id="0" />
        <mxCell id="1" parent="0" />
        <mxCell id="VoCDYV5BWMh_LhJW3Wjn-31" value="$$R_q$$" style="text;html=1;resizable=0;autosize=1;align=center;verticalAlign=middle;points=[];fillColor=none;strokeColor=none;rounded=0;" parent="1" vertex="1">
          <mxGeometry x="98" y="227" width="70" height="30" as="geometry" />
        </mxCell>
        <mxCell id="VoCDYV5BWMh_LhJW3Wjn-24" value="" style="rounded=0;whiteSpace=wrap;html=1;fillColor=#FFFFFF;strokeColor=#000000;" parent="1" vertex="1">
          <mxGeometry x="285" y="190" width="30" height="10" as="geometry" />
        </mxCell>
        <mxCell id="VoCDYV5BWMh_LhJW3Wjn-1" value="" style="endArrow=classic;html=1;rounded=0;" parent="1" edge="1">
          <mxGeometry width="50" height="50" relative="1" as="geometry">
            <mxPoint x="95" y="160" as="sourcePoint" />
            <mxPoint x="375" y="160" as="targetPoint" />
          </mxGeometry>
        </mxCell>
        <mxCell id="VoCDYV5BWMh_LhJW3Wjn-2" value="" style="endArrow=classic;html=1;rounded=0;" parent="1" edge="1">
          <mxGeometry width="50" height="50" relative="1" as="geometry">
            <mxPoint x="95" y="200" as="sourcePoint" />
            <mxPoint x="375" y="200" as="targetPoint" />
          </mxGeometry>
        </mxCell>
        <mxCell id="VoCDYV5BWMh_LhJW3Wjn-3" value="" style="rounded=0;whiteSpace=wrap;html=1;fillColor=#CCCCCC;strokeColor=#000000;" parent="1" vertex="1">
          <mxGeometry x="105" y="150" width="50" height="10" as="geometry" />
        </mxCell>
        <mxCell id="VoCDYV5BWMh_LhJW3Wjn-4" value="" style="rounded=0;whiteSpace=wrap;html=1;fillColor=#CCCCCC;strokeColor=#000000;" parent="1" vertex="1">
          <mxGeometry x="215" y="150" width="40" height="10" as="geometry" />
        </mxCell>
        <mxCell id="VoCDYV5BWMh_LhJW3Wjn-5" value="" style="rounded=0;whiteSpace=wrap;html=1;fillColor=#CCCCCC;strokeColor=#000000;" parent="1" vertex="1">
          <mxGeometry x="295" y="150" width="40" height="10" as="geometry" />
        </mxCell>
        <mxCell id="VoCDYV5BWMh_LhJW3Wjn-7" value="" style="rounded=0;whiteSpace=wrap;html=1;fillColor=#FFFFFF;strokeColor=#000000;" parent="1" vertex="1">
          <mxGeometry x="115" y="190" width="40" height="10" as="geometry" />
        </mxCell>
        <mxCell id="VoCDYV5BWMh_LhJW3Wjn-8" value="" style="rounded=0;whiteSpace=wrap;html=1;fillColor=#FFFFFF;strokeColor=#000000;" parent="1" vertex="1">
          <mxGeometry x="205" y="190" width="40" height="10" as="geometry" />
        </mxCell>
        <mxCell id="VoCDYV5BWMh_LhJW3Wjn-9" value="" style="rounded=0;whiteSpace=wrap;html=1;fillColor=#FFFFFF;strokeColor=#000000;" parent="1" vertex="1">
          <mxGeometry x="285" y="257" width="30" height="10" as="geometry" />
        </mxCell>
        <mxCell id="VoCDYV5BWMh_LhJW3Wjn-11" value="" style="endArrow=classic;html=1;rounded=0;" parent="1" edge="1">
          <mxGeometry width="50" height="50" relative="1" as="geometry">
            <mxPoint x="95" y="267" as="sourcePoint" />
            <mxPoint x="375" y="267" as="targetPoint" />
          </mxGeometry>
        </mxCell>
        <mxCell id="VoCDYV5BWMh_LhJW3Wjn-13" value="" style="rounded=0;whiteSpace=wrap;html=1;fillColor=#CCCCCC;strokeColor=#000000;" parent="1" vertex="1">
          <mxGeometry x="245" y="257" width="40" height="10" as="geometry" />
        </mxCell>
        <mxCell id="VoCDYV5BWMh_LhJW3Wjn-14" value="" style="rounded=0;whiteSpace=wrap;html=1;fillColor=#CCCCCC;strokeColor=#000000;" parent="1" vertex="1">
          <mxGeometry x="315" y="257" width="40" height="10" as="geometry" />
        </mxCell>
        <mxCell id="VoCDYV5BWMh_LhJW3Wjn-15" value="" style="rounded=0;whiteSpace=wrap;html=1;fillColor=#FFFFFF;strokeColor=#000000;" parent="1" vertex="1">
          <mxGeometry x="155" y="257" width="40" height="10" as="geometry" />
        </mxCell>
        <mxCell id="VoCDYV5BWMh_LhJW3Wjn-16" value="" style="rounded=0;whiteSpace=wrap;html=1;fillColor=#FFFFFF;strokeColor=#000000;" parent="1" vertex="1">
          <mxGeometry x="205" y="257" width="40" height="10" as="geometry" />
        </mxCell>
        <mxCell id="VoCDYV5BWMh_LhJW3Wjn-17" value="" style="endArrow=none;dashed=1;html=1;strokeWidth=1;rounded=0;entryX=0;entryY=1;entryDx=0;entryDy=0;exitX=0;exitY=0;exitDx=0;exitDy=0;strokeColor=#808080;" parent="1" target="VoCDYV5BWMh_LhJW3Wjn-3" edge="1" source="qLcCNhTpuj1mLV-UU1Nb-5">
          <mxGeometry width="50" height="50" relative="1" as="geometry">
            <mxPoint x="105" y="280" as="sourcePoint" />
            <mxPoint x="365" y="250" as="targetPoint" />
          </mxGeometry>
        </mxCell>
        <mxCell id="VoCDYV5BWMh_LhJW3Wjn-19" value="" style="endArrow=none;dashed=1;html=1;strokeWidth=1;rounded=0;exitX=1;exitY=0;exitDx=0;exitDy=0;strokeColor=#808080;" parent="1" edge="1" source="qLcCNhTpuj1mLV-UU1Nb-5">
          <mxGeometry width="50" height="50" relative="1" as="geometry">
            <mxPoint x="154" y="280" as="sourcePoint" />
            <mxPoint x="155" y="160" as="targetPoint" />
          </mxGeometry>
        </mxCell>
        <mxCell id="VoCDYV5BWMh_LhJW3Wjn-20" value="" style="endArrow=none;dashed=1;html=1;strokeWidth=1;rounded=0;entryX=0;entryY=1;entryDx=0;entryDy=0;strokeColor=#808080;" parent="1" edge="1">
          <mxGeometry width="50" height="50" relative="1" as="geometry">
            <mxPoint x="295" y="257" as="sourcePoint" />
            <mxPoint x="295" y="157" as="targetPoint" />
          </mxGeometry>
        </mxCell>
        <mxCell id="VoCDYV5BWMh_LhJW3Wjn-21" value="" style="endArrow=none;dashed=1;html=1;strokeWidth=1;rounded=0;exitX=0;exitY=0;exitDx=0;exitDy=0;strokeColor=#808080;" parent="1" edge="1" source="VoCDYV5BWMh_LhJW3Wjn-9">
          <mxGeometry width="50" height="50" relative="1" as="geometry">
            <mxPoint x="284" y="280" as="sourcePoint" />
            <mxPoint x="285" y="160" as="targetPoint" />
          </mxGeometry>
        </mxCell>
        <mxCell id="VoCDYV5BWMh_LhJW3Wjn-23" value="" style="endArrow=none;dashed=1;html=1;strokeWidth=1;rounded=0;entryX=0;entryY=1;entryDx=0;entryDy=0;exitX=0.25;exitY=0;exitDx=0;exitDy=0;strokeColor=#808080;" parent="1" edge="1" source="VoCDYV5BWMh_LhJW3Wjn-16">
          <mxGeometry width="50" height="50" relative="1" as="geometry">
            <mxPoint x="215" y="280" as="sourcePoint" />
            <mxPoint x="215" y="160" as="targetPoint" />
          </mxGeometry>
        </mxCell>
        <mxCell id="VoCDYV5BWMh_LhJW3Wjn-30" value="" style="endArrow=none;dashed=1;html=1;strokeWidth=1;rounded=0;entryX=0;entryY=1;entryDx=0;entryDy=0;exitX=0.914;exitY=1.044;exitDx=0;exitDy=0;strokeColor=#808080;exitPerimeter=0;" parent="1" edge="1" source="VoCDYV5BWMh_LhJW3Wjn-42">
          <mxGeometry width="50" height="50" relative="1" as="geometry">
            <mxPoint x="355" y="280" as="sourcePoint" />
            <mxPoint x="355" y="160" as="targetPoint" />
          </mxGeometry>
        </mxCell>
        <mxCell id="VoCDYV5BWMh_LhJW3Wjn-35" value="" style="endArrow=classic;html=1;rounded=0;endSize=3;strokeWidth=1;" parent="1" edge="1">
          <mxGeometry width="50" height="50" relative="1" as="geometry">
            <mxPoint x="135" y="241.66000000000003" as="sourcePoint" />
            <mxPoint x="155" y="241.66000000000003" as="targetPoint" />
          </mxGeometry>
        </mxCell>
        <mxCell id="VoCDYV5BWMh_LhJW3Wjn-36" value="" style="endArrow=classic;html=1;rounded=0;endSize=3;strokeWidth=1;" parent="1" edge="1">
          <mxGeometry width="50" height="50" relative="1" as="geometry">
            <mxPoint x="125" y="241.66000000000008" as="sourcePoint" />
            <mxPoint x="105" y="241.66000000000003" as="targetPoint" />
          </mxGeometry>
        </mxCell>
        <mxCell id="VoCDYV5BWMh_LhJW3Wjn-39" value="$$R_q$$" style="text;html=1;resizable=0;autosize=1;align=center;verticalAlign=middle;points=[];fillColor=none;strokeColor=none;rounded=0;" parent="1" vertex="1">
          <mxGeometry x="215" y="227" width="70" height="30" as="geometry" />
        </mxCell>
        <mxCell id="VoCDYV5BWMh_LhJW3Wjn-40" value="" style="endArrow=classic;html=1;rounded=0;endSize=3;strokeWidth=1;entryX=1.003;entryY=0.485;entryDx=0;entryDy=0;entryPerimeter=0;" parent="1" target="VoCDYV5BWMh_LhJW3Wjn-39" edge="1">
          <mxGeometry width="50" height="50" relative="1" as="geometry">
            <mxPoint x="255" y="242" as="sourcePoint" />
            <mxPoint x="272" y="241.66000000000008" as="targetPoint" />
          </mxGeometry>
        </mxCell>
        <mxCell id="VoCDYV5BWMh_LhJW3Wjn-41" value="" style="endArrow=classic;html=1;rounded=0;endSize=3;strokeWidth=1;entryX=0.004;entryY=0.5;entryDx=0;entryDy=0;entryPerimeter=0;" parent="1" target="VoCDYV5BWMh_LhJW3Wjn-39" edge="1">
          <mxGeometry width="50" height="50" relative="1" as="geometry">
            <mxPoint x="242" y="241.66000000000008" as="sourcePoint" />
            <mxPoint x="222" y="241.66000000000008" as="targetPoint" />
          </mxGeometry>
        </mxCell>
        <mxCell id="VoCDYV5BWMh_LhJW3Wjn-42" value="$$R_q$$" style="text;html=1;resizable=0;autosize=1;align=center;verticalAlign=middle;points=[];fillColor=none;strokeColor=none;rounded=0;" parent="1" vertex="1">
          <mxGeometry x="291" y="227" width="70" height="30" as="geometry" />
        </mxCell>
        <mxCell id="VoCDYV5BWMh_LhJW3Wjn-43" value="" style="endArrow=classic;html=1;rounded=0;endSize=3;strokeWidth=1;" parent="1" edge="1">
          <mxGeometry width="50" height="50" relative="1" as="geometry">
            <mxPoint x="335" y="242" as="sourcePoint" />
            <mxPoint x="355" y="242" as="targetPoint" />
          </mxGeometry>
        </mxCell>
        <mxCell id="VoCDYV5BWMh_LhJW3Wjn-44" value="" style="endArrow=classic;html=1;rounded=0;endSize=3;strokeWidth=1;entryX=0.004;entryY=0.5;entryDx=0;entryDy=0;entryPerimeter=0;" parent="1" edge="1">
          <mxGeometry width="50" height="50" relative="1" as="geometry">
            <mxPoint x="318" y="242" as="sourcePoint" />
            <mxPoint x="294.28" y="242" as="targetPoint" />
          </mxGeometry>
        </mxCell>
        <mxCell id="VoCDYV5BWMh_LhJW3Wjn-45" value="" style="rounded=0;whiteSpace=wrap;html=1;fillColor=#FFFFFF;strokeColor=#000000;" parent="1" vertex="1">
          <mxGeometry x="625" y="190" width="10" height="10" as="geometry" />
        </mxCell>
        <mxCell id="VoCDYV5BWMh_LhJW3Wjn-46" value="" style="endArrow=classic;html=1;rounded=0;" parent="1" edge="1">
          <mxGeometry width="50" height="50" relative="1" as="geometry">
            <mxPoint x="435" y="160" as="sourcePoint" />
            <mxPoint x="715" y="160" as="targetPoint" />
          </mxGeometry>
        </mxCell>
        <mxCell id="VoCDYV5BWMh_LhJW3Wjn-47" value="" style="endArrow=classic;html=1;rounded=0;" parent="1" edge="1">
          <mxGeometry width="50" height="50" relative="1" as="geometry">
            <mxPoint x="435" y="200" as="sourcePoint" />
            <mxPoint x="715" y="200" as="targetPoint" />
          </mxGeometry>
        </mxCell>
        <mxCell id="VoCDYV5BWMh_LhJW3Wjn-48" value="" style="rounded=0;whiteSpace=wrap;html=1;fillColor=#CCCCCC;strokeColor=#000000;" parent="1" vertex="1">
          <mxGeometry x="445" y="150" width="50" height="10" as="geometry" />
        </mxCell>
        <mxCell id="VoCDYV5BWMh_LhJW3Wjn-49" value="" style="rounded=0;whiteSpace=wrap;html=1;fillColor=#CCCCCC;strokeColor=#000000;" parent="1" vertex="1">
          <mxGeometry x="555" y="150" width="40" height="10" as="geometry" />
        </mxCell>
        <mxCell id="VoCDYV5BWMh_LhJW3Wjn-50" value="" style="rounded=0;whiteSpace=wrap;html=1;fillColor=#CCCCCC;strokeColor=#000000;" parent="1" vertex="1">
          <mxGeometry x="635" y="150" width="40" height="10" as="geometry" />
        </mxCell>
        <mxCell id="VoCDYV5BWMh_LhJW3Wjn-51" value="" style="rounded=0;whiteSpace=wrap;html=1;fillColor=#FFFFFF;strokeColor=#000000;" parent="1" vertex="1">
          <mxGeometry x="495" y="257" width="10" height="10" as="geometry" />
        </mxCell>
        <mxCell id="VoCDYV5BWMh_LhJW3Wjn-52" value="" style="rounded=0;whiteSpace=wrap;html=1;fillColor=#FFFFFF;strokeColor=#000000;" parent="1" vertex="1">
          <mxGeometry x="545" y="190" width="10" height="10" as="geometry" />
        </mxCell>
        <mxCell id="VoCDYV5BWMh_LhJW3Wjn-53" value="" style="rounded=0;whiteSpace=wrap;html=1;fillColor=#FFFFFF;strokeColor=#000000;" parent="1" vertex="1">
          <mxGeometry x="625" y="257" width="10" height="10" as="geometry" />
        </mxCell>
        <mxCell id="VoCDYV5BWMh_LhJW3Wjn-54" value="" style="endArrow=classic;html=1;rounded=0;" parent="1" edge="1">
          <mxGeometry width="50" height="50" relative="1" as="geometry">
            <mxPoint x="435" y="267" as="sourcePoint" />
            <mxPoint x="715" y="267" as="targetPoint" />
          </mxGeometry>
        </mxCell>
        <mxCell id="VoCDYV5BWMh_LhJW3Wjn-55" value="" style="rounded=0;whiteSpace=wrap;html=1;fillColor=#CCCCCC;strokeColor=#000000;" parent="1" vertex="1">
          <mxGeometry x="555" y="257" width="40" height="10" as="geometry" />
        </mxCell>
        <mxCell id="VoCDYV5BWMh_LhJW3Wjn-58" value="" style="rounded=0;whiteSpace=wrap;html=1;fillColor=#FFFFFF;strokeColor=#000000;" parent="1" vertex="1">
          <mxGeometry x="545" y="257" width="10" height="10" as="geometry" />
        </mxCell>
        <mxCell id="VoCDYV5BWMh_LhJW3Wjn-59" value="" style="rounded=0;whiteSpace=wrap;html=1;fillColor=#CCCCCC;strokeColor=#000000;" parent="1" vertex="1">
          <mxGeometry x="445" y="257" width="50" height="10" as="geometry" />
        </mxCell>
        <mxCell id="VoCDYV5BWMh_LhJW3Wjn-60" value="" style="rounded=0;whiteSpace=wrap;html=1;fillColor=#CCCCCC;strokeColor=#000000;" parent="1" vertex="1">
          <mxGeometry x="635" y="257" width="40" height="10" as="geometry" />
        </mxCell>
        <mxCell id="VoCDYV5BWMh_LhJW3Wjn-61" value="" style="rounded=0;whiteSpace=wrap;html=1;fillColor=#FFFFFF;strokeColor=#000000;" parent="1" vertex="1">
          <mxGeometry x="455" y="190" width="10" height="10" as="geometry" />
        </mxCell>
        <mxCell id="VoCDYV5BWMh_LhJW3Wjn-62" value="" style="endArrow=none;dashed=1;html=1;strokeWidth=1;rounded=0;exitX=0;exitY=0;exitDx=0;exitDy=0;strokeColor=#808080;" parent="1" edge="1">
          <mxGeometry width="50" height="50" relative="1" as="geometry">
            <mxPoint x="445" y="257" as="sourcePoint" />
            <mxPoint x="445" y="160" as="targetPoint" />
          </mxGeometry>
        </mxCell>
        <mxCell id="VoCDYV5BWMh_LhJW3Wjn-64" value="" style="endArrow=none;dashed=1;html=1;strokeWidth=1;rounded=0;entryX=1;entryY=1;entryDx=0;entryDy=0;exitX=0;exitY=0;exitDx=0;exitDy=0;strokeColor=#808080;" parent="1" edge="1" target="VoCDYV5BWMh_LhJW3Wjn-48">
          <mxGeometry width="50" height="50" relative="1" as="geometry">
            <mxPoint x="494.99999999999994" y="257" as="sourcePoint" />
            <mxPoint x="494.99999999999994" y="137" as="targetPoint" />
          </mxGeometry>
        </mxCell>
        <mxCell id="VoCDYV5BWMh_LhJW3Wjn-65" value="" style="endArrow=none;dashed=1;html=1;strokeWidth=1;rounded=0;exitX=0;exitY=0;exitDx=0;exitDy=0;strokeColor=#808080;" parent="1" edge="1">
          <mxGeometry width="50" height="50" relative="1" as="geometry">
            <mxPoint x="555" y="257" as="sourcePoint" />
            <mxPoint x="555" y="160" as="targetPoint" />
          </mxGeometry>
        </mxCell>
        <mxCell id="VoCDYV5BWMh_LhJW3Wjn-66" value="" style="endArrow=none;dashed=1;html=1;strokeWidth=1;rounded=0;entryX=0;entryY=1;entryDx=0;entryDy=0;exitX=0.767;exitY=1.089;exitDx=0;exitDy=0;strokeColor=#808080;exitPerimeter=0;" parent="1" edge="1" source="VoCDYV5BWMh_LhJW3Wjn-73">
          <mxGeometry width="50" height="50" relative="1" as="geometry">
            <mxPoint x="595" y="280" as="sourcePoint" />
            <mxPoint x="595" y="160" as="targetPoint" />
          </mxGeometry>
        </mxCell>
        <mxCell id="VoCDYV5BWMh_LhJW3Wjn-67" value="" style="endArrow=none;dashed=1;html=1;strokeWidth=1;rounded=0;strokeColor=#808080;" parent="1" edge="1">
          <mxGeometry width="50" height="50" relative="1" as="geometry">
            <mxPoint x="635" y="257" as="sourcePoint" />
            <mxPoint x="635" y="160" as="targetPoint" />
          </mxGeometry>
        </mxCell>
        <mxCell id="VoCDYV5BWMh_LhJW3Wjn-68" value="" style="endArrow=none;dashed=1;html=1;strokeWidth=1;rounded=0;entryX=0;entryY=1;entryDx=0;entryDy=0;strokeColor=#808080;exitX=0.79;exitY=1;exitDx=0;exitDy=0;exitPerimeter=0;" parent="1" edge="1" source="VoCDYV5BWMh_LhJW3Wjn-79">
          <mxGeometry width="50" height="50" relative="1" as="geometry">
            <mxPoint x="675" y="270" as="sourcePoint" />
            <mxPoint x="675" y="160" as="targetPoint" />
          </mxGeometry>
        </mxCell>
        <mxCell id="VoCDYV5BWMh_LhJW3Wjn-70" value="$$R_q$$" style="text;html=1;resizable=0;autosize=1;align=center;verticalAlign=middle;points=[];fillColor=none;strokeColor=none;rounded=0;" parent="1" vertex="1">
          <mxGeometry x="439" y="227" width="70" height="30" as="geometry" />
        </mxCell>
        <mxCell id="VoCDYV5BWMh_LhJW3Wjn-71" value="" style="endArrow=classic;html=1;rounded=0;endSize=3;strokeWidth=1;" parent="1" edge="1">
          <mxGeometry width="50" height="50" relative="1" as="geometry">
            <mxPoint x="476" y="241.66000000000008" as="sourcePoint" />
            <mxPoint x="496" y="241.66000000000008" as="targetPoint" />
          </mxGeometry>
        </mxCell>
        <mxCell id="VoCDYV5BWMh_LhJW3Wjn-72" value="" style="endArrow=classic;html=1;rounded=0;endSize=3;strokeWidth=1;" parent="1" edge="1">
          <mxGeometry width="50" height="50" relative="1" as="geometry">
            <mxPoint x="466" y="241.66000000000008" as="sourcePoint" />
            <mxPoint x="446" y="241.66000000000008" as="targetPoint" />
          </mxGeometry>
        </mxCell>
        <mxCell id="VoCDYV5BWMh_LhJW3Wjn-73" value="$$R_q$$" style="text;html=1;resizable=0;autosize=1;align=center;verticalAlign=middle;points=[];fillColor=none;strokeColor=none;rounded=0;" parent="1" vertex="1">
          <mxGeometry x="542" y="227" width="70" height="30" as="geometry" />
        </mxCell>
        <mxCell id="VoCDYV5BWMh_LhJW3Wjn-74" value="" style="endArrow=classic;html=1;rounded=0;endSize=3;strokeWidth=1;" parent="1" edge="1">
          <mxGeometry width="50" height="50" relative="1" as="geometry">
            <mxPoint x="585" y="242" as="sourcePoint" />
            <mxPoint x="595" y="241.7600000000001" as="targetPoint" />
          </mxGeometry>
        </mxCell>
        <mxCell id="VoCDYV5BWMh_LhJW3Wjn-75" value="" style="endArrow=classic;html=1;rounded=0;endSize=3;strokeWidth=1;" parent="1" edge="1">
          <mxGeometry width="50" height="50" relative="1" as="geometry">
            <mxPoint x="565" y="242" as="sourcePoint" />
            <mxPoint x="555" y="241.7600000000001" as="targetPoint" />
          </mxGeometry>
        </mxCell>
        <mxCell id="VoCDYV5BWMh_LhJW3Wjn-79" value="$$R_q$$" style="text;html=1;resizable=0;autosize=1;align=center;verticalAlign=middle;points=[];fillColor=none;strokeColor=none;rounded=0;" parent="1" vertex="1">
          <mxGeometry x="621" y="227" width="70" height="30" as="geometry" />
        </mxCell>
        <mxCell id="VoCDYV5BWMh_LhJW3Wjn-80" value="" style="endArrow=classic;html=1;rounded=0;endSize=3;strokeWidth=1;" parent="1" edge="1">
          <mxGeometry width="50" height="50" relative="1" as="geometry">
            <mxPoint x="664" y="242" as="sourcePoint" />
            <mxPoint x="674" y="241.7600000000001" as="targetPoint" />
          </mxGeometry>
        </mxCell>
        <mxCell id="VoCDYV5BWMh_LhJW3Wjn-81" value="" style="endArrow=classic;html=1;rounded=0;endSize=3;strokeWidth=1;" parent="1" edge="1">
          <mxGeometry width="50" height="50" relative="1" as="geometry">
            <mxPoint x="644" y="242" as="sourcePoint" />
            <mxPoint x="634" y="241.7600000000001" as="targetPoint" />
          </mxGeometry>
        </mxCell>
        <mxCell id="VoCDYV5BWMh_LhJW3Wjn-82" value="&lt;font face=&quot;Times New Roman&quot; style=&quot;font-size: 14px;&quot;&gt;Queries&lt;/font&gt;" style="text;html=1;resizable=0;autosize=1;align=center;verticalAlign=middle;points=[];fillColor=none;strokeColor=none;rounded=0;fontStyle=1;fontSize=14;" parent="1" vertex="1">
          <mxGeometry x="35" y="140" width="70" height="30" as="geometry" />
        </mxCell>
        <mxCell id="VoCDYV5BWMh_LhJW3Wjn-83" value="&lt;font face=&quot;Times New Roman&quot; style=&quot;font-size: 14px;&quot;&gt;Updates&lt;/font&gt;" style="text;html=1;resizable=0;autosize=1;align=center;verticalAlign=middle;points=[];fillColor=none;strokeColor=none;rounded=0;fontStyle=1;fontSize=14;" parent="1" vertex="1">
          <mxGeometry x="35" y="180" width="70" height="30" as="geometry" />
        </mxCell>
        <mxCell id="VoCDYV5BWMh_LhJW3Wjn-84" value="&lt;font face=&quot;Times New Roman&quot; style=&quot;font-size: 14px;&quot;&gt;Queue&lt;/font&gt;" style="text;html=1;resizable=0;autosize=1;align=center;verticalAlign=middle;points=[];fillColor=none;strokeColor=none;rounded=0;fontStyle=1;fontSize=14;" parent="1" vertex="1">
          <mxGeometry x="37" y="247" width="60" height="30" as="geometry" />
        </mxCell>
        <mxCell id="VoCDYV5BWMh_LhJW3Wjn-85" value="" style="shape=flexArrow;endArrow=classic;html=1;rounded=0;fontFamily=Times New Roman;strokeColor=#1A1A1A;strokeWidth=1;endSize=5;startSize=10;" parent="1" edge="1">
          <mxGeometry width="50" height="50" relative="1" as="geometry">
            <mxPoint x="380" y="217.65" as="sourcePoint" />
            <mxPoint x="429" y="217.31" as="targetPoint" />
          </mxGeometry>
        </mxCell>
        <mxCell id="qLcCNhTpuj1mLV-UU1Nb-5" value="" style="rounded=0;whiteSpace=wrap;html=1;fillColor=#CCCCCC;strokeColor=#000000;" vertex="1" parent="1">
          <mxGeometry x="105" y="257" width="50" height="10" as="geometry" />
        </mxCell>
      </root>
    </mxGraphModel>
  </diagram>
</mxfile>
